<svg id="ba90420a-8383-48b9-9f29-fa7a803d52e4" data-name="Layer 1" xmlns="http://www.w3.org/2000/svg" viewBox="0 0 512 512">
  <defs>
    <style>
      .a45e1e6b-f5f0-43d6-a181-51926cdaf8c7 {
        fill: #fff;
      }

      .a5cc9064-e758-4465-b7a2-636ebc075c77 {
        fill: #d32027;
      }

      .ed1a4341-9e54-40df-92d9-4ca7520493f7 {
        fill: #0b0b0b;
      }

      .b331ffc4-7334-4ad3-8238-0fc7f6670df0 {
        fill: #f3c515;
      }

      .f7dbc3e7-526a-40c4-80b2-005b509b825d {
        fill: #db2727;
      }

      .bc4df7e4-6d6d-40dd-9ce6-672f542012fd {
        fill: #151515;
      }

      .ab6c1b77-ae2d-40a8-8077-a27049de2917 {
        fill: #f8d12e;
      }
    </style>
  </defs>
  <g>
    <circle class="a45e1e6b-f5f0-43d6-a181-51926cdaf8c7" cx="256.01082" cy="256.01082" r="255.98919"/>
    <path class="a5cc9064-e758-4465-b7a2-636ebc075c77" d="M497.36466,170.64577H339.63776a707.85169,707.85169,0,0,1,.1297,169.69565H497.704a256.20462,256.20462,0,0,0-.33937-169.69565Z"/>
    <path class="ed1a4341-9e54-40df-92d9-4ca7520493f7" d="M339.63776,170.64577h157.7269c-.0281-.08107-.053-.14917-.08108-.22266C464.51832,78.04087,380.24389,10.07289,278.98533,1.05063,318.17,22.53025,329.61352,90.58362,339.63776,170.64577Z"/>
    <path class="b331ffc4-7334-4ad3-8238-0fc7f6670df0" d="M278.98965,510.93748c101.44015-9.03847,185.83564-77.241,218.4712-169.8697.0854-.24644.15781-.48856.24644-.72744H339.76641C329.82754,420.83488,318.33543,489.36925,278.98965,510.93748Z"/>
    <path class="f7dbc3e7-526a-40c4-80b2-005b509b825d" d="M0,256.00216a255.51235,255.51235,0,0,0,14.2884,84.33818H352.94794a707.8516,707.8516,0,0,0-.1297-169.69566H14.62888A255.466,255.466,0,0,0,0,256.00216Z"/>
    <path class="bc4df7e4-6d6d-40dd-9ce6-672f542012fd" d="M14.70562,170.42311c-.0281.07242-.053.14159-.08106.22266H352.81932C342.79508,90.58361,318.17,22.53131,278.9907,1.05171,271.41038.38048,263.74681,0,255.99461,0,144.63071,0,49.92022,71.12529,14.70562,170.42311Z"/>
    <path class="ab6c1b77-ae2d-40a8-8077-a27049de2917" d="M352.948,340.34037H14.2884c.08539.23889.16213.481.24644.72745,35.07732,99.5529,129.91321,170.9279,241.45868,170.9279,7.75329,0,15.41686-.38047,22.995-1.0593C318.33543,489.36925,343.008,420.83488,352.948,340.34037Z"/>
  </g>
</svg>
